<svg xmlns="http://www.w3.org/2000/svg" viewBox="0 0 500 500" width="500" height="500">
  <style>
    .st0{fill:#f8f9fa}.st1{fill:#e9ecef}.st2{fill:#dee2e6}.st3{fill:#adb5bd}.st4{fill:#495057}.st5{fill:#dc3545}
  </style>
  <path class="st0" d="M467.3 432.9L297.5 259.4l169.8-173.6c9-9.2 9-24 0-33.2-9-9.2-23.7-9.2-32.7 0l-169.7 173.5L95.1 52.6c-9-9.2-23.7-9.2-32.7 0-9 9.2-9 24 0 33.2l169.8 173.6L62.4 432.9c-9 9.2-9 24 0 33.2 4.5 4.6 10.4 6.9 16.4 6.9 5.9 0 11.8-2.3 16.4-6.9l169.8-173.5 169.8 173.5c4.5 4.6 10.4 6.9 16.4 6.9s11.8-2.3 16.4-6.9c9-9.2 9-24-.3-33.2z"/>
  <path class="st1" d="M134.6 329.8c0 11-8.9 20-20 20h-44c-11 0-20-8.9-20-20v-44c0-11 8.9-20 20-20h44c11 0 20 8.9 20 20v44z"/>
  <path class="st2" d="M129.6 319.8c0 11-8.9 20-20 20h-44c-11 0-20-8.9-20-20v-44c0-11 8.9-20 20-20h44c11 0 20 8.9 20 20v44z"/>
  <path class="st3" d="M114.6 299.8c0 5.5-4.5 10-10 10s-10-4.5-10-10 4.5-10 10-10 10 4.5 10 10z"/>
  <path class="st4" d="M190.4 200h-80c-5.5 0-10-4.5-10-10s4.5-10 10-10h80c5.5 0 10 4.5 10 10s-4.5 10-10 10z"/>
  <path class="st5" d="M350.4 320h-80c-5.5 0-10-4.5-10-10s4.5-10 10-10h80c5.5 0 10 4.5 10 10s-4.5 10-10 10z"/>
  <path class="st4" d="M320.4 240h-160c-5.5 0-10-4.5-10-10s4.5-10 10-10h160c5.5 0 10 4.5 10 10s-4.5 10-10 10z"/>
  <path class="st3" d="M320.4 280h-160c-5.5 0-10-4.5-10-10s4.5-10 10-10h160c5.5 0 10 4.5 10 10s-4.5 10-10 10z"/>
  <path class="st1" d="M449.6 329.8c0 11-8.9 20-20 20h-44c-11 0-20-8.9-20-20v-44c0-11 8.9-20 20-20h44c11 0 20 8.9 20 20v44z"/>
  <path class="st2" d="M444.6 319.8c0 11-8.9 20-20 20h-44c-11 0-20-8.9-20-20v-44c0-11 8.9-20 20-20h44c11 0 20 8.9 20 20v44z"/>
  <path class="st3" d="M429.6 299.8c0 5.5-4.5 10-10 10s-10-4.5-10-10 4.5-10 10-10 10 4.5 10 10z"/>
  <text transform="translate(150 150)" font-family="Arial" font-size="120" font-weight="bold" fill="#dc3545">403</text>
  <path class="st5" d="M250 350c-55.2 0-100-44.8-100-100s44.8-100 100-100 100 44.8 100 100-44.8 100-100 100zm0-180c-44.1 0-80 35.9-80 80s35.9 80 80 80 80-35.9 80-80-35.9-80-80-80z"/>
  <path class="st5" d="M250 330c-5.5 0-10-4.5-10-10v-20c0-5.5 4.5-10 10-10s10 4.5 10 10v20c0 5.5-4.5 10-10 10z"/>
  <circle class="st5" cx="250" cy="260" r="10"/>
</svg>